<?xml version="1.0" encoding="UTF-8" standalone="no"?><!DOCTYPE svg PUBLIC "-//W3C//DTD SVG 1.1//EN" "http://www.w3.org/Graphics/SVG/1.1/DTD/svg11.dtd"><svg width="100%" height="100%" viewBox="0 0 142 142" version="1.1" xmlns="http://www.w3.org/2000/svg" xmlns:xlink="http://www.w3.org/1999/xlink" xml:space="preserve" xmlns:serif="http://www.serif.com/" style="fill-rule:evenodd;clip-rule:evenodd;stroke-linejoin:round;stroke-miterlimit:2;"><rect id="Artboard1" x="0" y="0" width="141.732" height="141.732" style="fill:none;"/><g id="Artboard11" serif:id="Artboard1"><path d="M138.489,5.685l0,6.578c0,1.816 -1.474,3.29 -3.289,3.29l-128.668,-0c-1.815,-0 -3.289,-1.474 -3.289,-3.29l-0,-6.578c-0,-1.816 1.474,-3.29 3.289,-3.29l128.668,0c1.815,0 3.289,1.474 3.289,3.29Z"/><path d="M138.489,128.072l0,6.578c0,1.816 -1.474,3.289 -3.289,3.289l-128.668,0c-1.815,0 -3.289,-1.473 -3.289,-3.289l-0,-6.578c-0,-1.816 1.474,-3.29 3.289,-3.29l128.668,0c1.815,0 3.289,1.474 3.289,3.29Z"/><rect x="18.172" y="15.18" width="16.66" height="116.181"/><path d="M47.748,27.197l-0,-12.017l16.66,0l0,20.88l-16.66,-8.863Z"/><path d="M77.324,42.932l0,-27.752l16.66,0l0,63.828l-16.66,-8.863l0,-10.505l15.703,-8.354l-15.703,-8.354Z"/><path d="M93.984,89.937l0,41.424l-16.66,-0l0,-32.56l16.66,-8.864Z"/><path d="M64.408,105.672l0,25.689l-16.66,-0l-0,-16.826l16.66,-8.863Z"/><path d="M66.963,91.542l-18.212,9.689l0,-29.285l3.977,-2.115l14.235,7.573l0,14.138Z" style="fill:#c90000;"/><path d="M48.751,44.755l5.11,-7.489l0,5.954l10.92,5.81l4.241,2.256l-16.294,8.668l-3.977,-2.115l0,-13.084Z" style="fill:#c90000;"/><rect x="106.901" y="15.18" width="16.66" height="116.181"/></g></svg>